<?xml version="1.0" encoding="ISO-8859-1" standalone="no"?>
<!DOCTYPE svg PUBLIC "-//W3C//DTD SVG 1.1//EN" "http://www.w3.org/Graphics/SVG/1.1/DTD/svg11.dtd">
<svg version="1.1" baseProfile="full" id="body" width="19.812cm" height="19.812cm" viewBox="0 0 1 1" preserveAspectRatio="none" xmlns="http://www.w3.org/2000/svg" xmlns:xlink="http://www.w3.org/1999/xlink" xmlns:ev="http://www.w3.org/2001/xml-events">
<title>SVG drawing</title>
<desc>This was produced by version 4.4 of GNU libplot, a free library for exporting 2-D vector graphics.</desc>
<rect id="background" x="0" y="0" width="1" height="1" stroke="none" fill="white"/>
<g id="content" transform="translate(0.04375,0.21719) scale(1,-1) scale(0.125) " xml:space="preserve" stroke="black" stroke-linecap="butt" stroke-linejoin="miter" stroke-miterlimit="10.433" stroke-dasharray="none" stroke-dashoffset="0" stroke-opacity="1" fill="none" fill-rule="evenodd" fill-opacity="1" font-style="normal" font-variant="normal" font-weight="normal" font-stretch="normal" font-size-adjust="none" letter-spacing="normal" word-spacing="normal" text-anchor="start">
<circle cx="0.15" cy="0.19" r="0.06" stroke-width="0.0094118" />
<line x1="0.15" y1="0.13" x2="0.15" y2="0.01" stroke-width="0.0094118" />
<line x1="0" y1="0.11" x2="0.3" y2="0.11" stroke-width="0.0094118" />
<line x1="0.15" y1="0.01" x2="0.07" y2="-0.14" stroke-width="0.0094118" />
<line x1="0.15" y1="0.01" x2="0.23" y2="-0.14" stroke-width="0.0094118" />
<text transform="translate(-0.069931,-0.29903) scale(1,-1) scale(0.0069444) " font-family="Helvetica,sans-serif" font-size="20px" stroke="none" fill="black" >ui:User</text>
<rect x="0.8" y="-0.15" width="0.8" height="0.3" stroke-width="0.0094118" />
<text transform="translate(1.092,-0.049028) scale(1,-1) scale(0.0069444) " font-family="Helvetica,sans-serif" font-size="20px" stroke="none" fill="black" >CM</text>
<rect x="2.1" y="-0.15" width="0.8" height="0.3" stroke-width="0.0094118" />
<text transform="translate(2.4035,-0.049028) scale(1,-1) scale(0.0069444) " font-family="Helvetica,sans-serif" font-size="20px" stroke="none" fill="black" >CS</text>
<rect x="3.4" y="-0.15" width="0.8" height="0.3" stroke-width="0.0094118" />
<text transform="translate(3.6997,-0.049028) scale(1,-1) scale(0.0069444) " font-family="Helvetica,sans-serif" font-size="20px" stroke="none" fill="black" >TM</text>
<rect x="4.7" y="-0.15" width="0.8" height="0.3" stroke-width="0.0094118" />
<text transform="translate(5.0113,-0.049028) scale(1,-1) scale(0.0069444) " font-family="Helvetica,sans-serif" font-size="20px" stroke="none" fill="black" >TE</text>
<line x1="0.21" y1="-0.5" x2="1.14" y2="-0.5" stroke-width="0.0094118" />
<polygon points="1.04,-0.475 1.14,-0.5 1.04,-0.525 " stroke-width="0.0094118" fill="black" />
<text transform="translate(0.4975,-0.46569) scale(1,-1) scale(0.0069444) " font-family="Helvetica,sans-serif" font-size="20px" stroke="none" fill="black" >load()</text>
<text transform="translate(0.65569,-0.63236) scale(1,-1) scale(0.0069444) " font-family="Helvetica,sans-serif" font-size="20px" stroke="none" fill="black" > </text>
<line x1="1.2" y1="-0.15" x2="1.2" y2="-0.5" stroke-width="0.0094118" stroke-dasharray="0.05, 0.05"/>
<line x1="1.15" y1="-0.5" x2="1.25" y2="-0.5" stroke-width="0.0094118" />
<line x1="1.26" y1="-1" x2="2.44" y2="-1" stroke-width="0.0094118" />
<polygon points="2.34,-0.975 2.44,-1 2.34,-1.025 " stroke-width="0.0094118" fill="black" />
<text transform="translate(1.4565,-0.96569) scale(1,-1) scale(0.0069444) " font-family="Helvetica,sans-serif" font-size="20px" stroke="none" fill="black" >isRegisterd()</text>
<text transform="translate(1.8307,-1.1324) scale(1,-1) scale(0.0069444) " font-family="Helvetica,sans-serif" font-size="20px" stroke="none" fill="black" > </text>
<line x1="2.5" y1="-0.15" x2="2.5" y2="-1" stroke-width="0.0094118" stroke-dasharray="0.05, 0.05"/>
<line x1="2.45" y1="-1" x2="2.55" y2="-1" stroke-width="0.0094118" />
<line x1="2.44" y1="-1.25" x2="1.26" y2="-1.25" stroke-width="0.0094118" stroke-dasharray="0.05, 0.05"/>
<polygon points="1.36,-1.275 1.26,-1.25 1.36,-1.225 " stroke-width="0.0094118" fill="black" />
<text transform="translate(1.7033,-1.2157) scale(1,-1) scale(0.0069444) " font-family="Helvetica,sans-serif" font-size="20px" stroke="none" fill="black" >false</text>
<text transform="translate(1.8307,-1.3824) scale(1,-1) scale(0.0069444) " font-family="Helvetica,sans-serif" font-size="20px" stroke="none" fill="black" > </text>
<line x1="2.45" y1="-1" x2="2.45" y2="-1.25" stroke-width="0.0094118" />
<line x1="2.55" y1="-1" x2="2.55" y2="-1.25" stroke-width="0.0094118" />
<line x1="2.45" y1="-1.25" x2="2.55" y2="-1.25" stroke-width="0.0094118" />
<line x1="1.26" y1="-1.5" x2="3.74" y2="-1.5" stroke-width="0.0094118" />
<polygon points="3.64,-1.475 3.74,-1.5 3.64,-1.525 " stroke-width="0.0094118" fill="black" />
<text transform="translate(1.9444,-1.4657) scale(1,-1) scale(0.0069444) " font-family="Helvetica,sans-serif" font-size="20px" stroke="none" fill="black" >submitCollection()</text>
<text transform="translate(2.4807,-1.6324) scale(1,-1) scale(0.0069444) " font-family="Helvetica,sans-serif" font-size="20px" stroke="none" fill="black" > </text>
<line x1="3.8" y1="-0.15" x2="3.8" y2="-1.5" stroke-width="0.0094118" stroke-dasharray="0.05, 0.05"/>
<line x1="3.75" y1="-1.5" x2="3.85" y2="-1.5" stroke-width="0.0094118" />
<line x1="3.86" y1="-1.75" x2="5.04" y2="-1.75" stroke-width="0.0094118" />
<polygon points="4.94,-1.725 5.04,-1.75 4.94,-1.775 " stroke-width="0.0094118" fill="black" />
<text transform="translate(3.9599,-1.7157) scale(1,-1) scale(0.0069444) " font-family="Helvetica,sans-serif" font-size="20px" stroke="none" fill="black" >createCallable()</text>
<text transform="translate(4.4307,-1.8824) scale(1,-1) scale(0.0069444) " font-family="Helvetica,sans-serif" font-size="20px" stroke="none" fill="black" > </text>
<line x1="5.1" y1="-0.15" x2="5.1" y2="-1.75" stroke-width="0.0094118" stroke-dasharray="0.05, 0.05"/>
<line x1="5.05" y1="-1.75" x2="5.15" y2="-1.75" stroke-width="0.0094118" />
<line x1="5.16" y1="-2" x2="5.992" y2="-2" stroke-width="0.0094118" />
<polygon points="5.892,-1.975 5.992,-2 5.892,-2.025 " stroke-width="0.0094118" fill="black" />
<text transform="translate(5.3058,-1.9657) scale(1,-1) scale(0.0069444) " font-family="Helvetica,sans-serif" font-size="20px" stroke="none" fill="black" >«create»</text>
<text transform="translate(5.5567,-2.1324) scale(1,-1) scale(0.0069444) " font-family="Helvetica,sans-serif" font-size="20px" stroke="none" fill="black" > </text>
<rect x="5.992" y="-2.15" width="0.8" height="0.3" stroke-width="0.0094118" />
<text transform="translate(6.1528,-2.049) scale(1,-1) scale(0.0069444) " font-family="Helvetica,sans-serif" font-size="20px" stroke="none" fill="black" >task:TC</text>
<line x1="6.092" y1="-2.07" x2="6.692" y2="-2.07" stroke-width="0.0094118" />
<line x1="5.04" y1="-2.525" x2="3.86" y2="-2.525" stroke-width="0.0094118" stroke-dasharray="0.05, 0.05"/>
<polygon points="3.96,-2.55 3.86,-2.525 3.96,-2.5 " stroke-width="0.0094118" fill="black" />
<text transform="translate(4.3226,-2.4907) scale(1,-1) scale(0.0069444) " font-family="Helvetica,sans-serif" font-size="20px" stroke="none" fill="black" >task</text>
<text transform="translate(4.4307,-2.6574) scale(1,-1) scale(0.0069444) " font-family="Helvetica,sans-serif" font-size="20px" stroke="none" fill="black" > </text>
<line x1="5.05" y1="-1.75" x2="5.05" y2="-2.525" stroke-width="0.0094118" />
<line x1="5.15" y1="-1.75" x2="5.15" y2="-2.525" stroke-width="0.0094118" />
<line x1="5.05" y1="-2.525" x2="5.15" y2="-2.525" stroke-width="0.0094118" />
<line x1="3.86" y1="-3.025" x2="6.34" y2="-3.025" stroke-width="0.0094118" />
<polygon points="6.24,-3 6.34,-3.025 6.24,-3.05 " stroke-width="0.0094118" fill="black" />
<text transform="translate(4.9496,-2.9907) scale(1,-1) scale(0.0069444) " font-family="Helvetica,sans-serif" font-size="20px" stroke="none" fill="black" >call()</text>
<text transform="translate(5.0807,-3.1574) scale(1,-1) scale(0.0069444) " font-family="Helvetica,sans-serif" font-size="20px" stroke="none" fill="black" > </text>
<line x1="6.4" y1="-2.15" x2="6.4" y2="-3.025" stroke-width="0.0094118" stroke-dasharray="0.05, 0.05"/>
<line x1="6.35" y1="-3.025" x2="6.45" y2="-3.025" stroke-width="0.0094118" />
<line x1="6.34" y1="-3.525" x2="3.86" y2="-3.525" stroke-width="0.0094118" stroke-dasharray="0.05, 0.05"/>
<polygon points="3.96,-3.55 3.86,-3.525 3.96,-3.5 " stroke-width="0.0094118" fill="black" />
<text transform="translate(4.5904,-3.4907) scale(1,-1) scale(0.0069444) " font-family="Helvetica,sans-serif" font-size="20px" stroke="none" fill="black" >output:IEntitySet</text>
<text transform="translate(5.0807,-3.6574) scale(1,-1) scale(0.0069444) " font-family="Helvetica,sans-serif" font-size="20px" stroke="none" fill="black" > </text>
<line x1="6.35" y1="-3.025" x2="6.35" y2="-3.525" stroke-width="0.0094118" />
<line x1="6.45" y1="-3.025" x2="6.45" y2="-3.525" stroke-width="0.0094118" />
<line x1="6.35" y1="-3.525" x2="6.45" y2="-3.525" stroke-width="0.0094118" />
<line x1="3.75" y1="-1.5" x2="3.75" y2="-3.525" stroke-width="0.0094118" />
<line x1="3.85" y1="-1.5" x2="3.85" y2="-3.525" stroke-width="0.0094118" />
<line x1="3.75" y1="-3.525" x2="3.85" y2="-3.525" stroke-width="0.0094118" />
<line x1="1.26" y1="-4.025" x2="3.74" y2="-4.025" stroke-width="0.0094118" />
<polygon points="3.64,-4 3.74,-4.025 3.64,-4.05 " stroke-width="0.0094118" fill="black" />
<text transform="translate(1.9983,-3.9907) scale(1,-1) scale(0.0069444) " font-family="Helvetica,sans-serif" font-size="20px" stroke="none" fill="black" >getTaskOutput()</text>
<text transform="translate(2.4807,-4.1574) scale(1,-1) scale(0.0069444) " font-family="Helvetica,sans-serif" font-size="20px" stroke="none" fill="black" > </text>
<line x1="3.8" y1="-3.525" x2="3.8" y2="-4.025" stroke-width="0.0094118" stroke-dasharray="0.05, 0.05"/>
<line x1="3.75" y1="-4.025" x2="3.85" y2="-4.025" stroke-width="0.0094118" />
<line x1="3.74" y1="-4.275" x2="1.26" y2="-4.275" stroke-width="0.0094118" stroke-dasharray="0.05, 0.05"/>
<polygon points="1.36,-4.3 1.26,-4.275 1.36,-4.25 " stroke-width="0.0094118" fill="black" />
<text transform="translate(2.3069,-4.2407) scale(1,-1) scale(0.0069444) " font-family="Helvetica,sans-serif" font-size="20px" stroke="none" fill="black" >output</text>
<text transform="translate(2.4807,-4.4074) scale(1,-1) scale(0.0069444) " font-family="Helvetica,sans-serif" font-size="20px" stroke="none" fill="black" > </text>
<line x1="3.75" y1="-4.025" x2="3.75" y2="-4.275" stroke-width="0.0094118" />
<line x1="3.85" y1="-4.025" x2="3.85" y2="-4.275" stroke-width="0.0094118" />
<line x1="3.75" y1="-4.275" x2="3.85" y2="-4.275" stroke-width="0.0094118" />
<line x1="1.14" y1="-4.525" x2="0.21" y2="-4.525" stroke-width="0.0094118" stroke-dasharray="0.05, 0.05"/>
<polygon points="0.31,-4.55 0.21,-4.525 0.31,-4.5 " stroke-width="0.0094118" fill="black" />
<text transform="translate(0.48194,-4.4907) scale(1,-1) scale(0.0069444) " font-family="Helvetica,sans-serif" font-size="20px" stroke="none" fill="black" >output</text>
<text transform="translate(0.65569,-4.6574) scale(1,-1) scale(0.0069444) " font-family="Helvetica,sans-serif" font-size="20px" stroke="none" fill="black" > </text>
<line x1="1.15" y1="-0.5" x2="1.15" y2="-4.775" stroke-width="0.0094118" />
<line x1="1.25" y1="-0.5" x2="1.25" y2="-4.775" stroke-width="0.0094118" />
<line x1="1.15" y1="-4.775" x2="1.25" y2="-4.775" stroke-width="0.0094118" />
<line x1="6.4" y1="-3.525" x2="6.4" y2="-4.775" stroke-width="0.0094118" stroke-dasharray="0.05, 0.05"/>
<line x1="5.1" y1="-2.525" x2="5.1" y2="-4.775" stroke-width="0.0094118" stroke-dasharray="0.05, 0.05"/>
<line x1="3.8" y1="-4.275" x2="3.8" y2="-4.775" stroke-width="0.0094118" stroke-dasharray="0.05, 0.05"/>
<line x1="2.5" y1="-1.25" x2="2.5" y2="-4.775" stroke-width="0.0094118" stroke-dasharray="0.05, 0.05"/>
<line x1="1.2" y1="-4.775" x2="1.2" y2="-4.775" stroke-width="0.0094118" stroke-dasharray="0.05, 0.05"/>
<line x1="0.15" y1="-0.3" x2="0.15" y2="-4.775" stroke-width="0.0094118" stroke-dasharray="0.05, 0.05"/>
</g>
</svg>
